<svg width="512" height="512" viewBox="0 0 100 100" fill="none" xmlns="http://www.w3.org/2000/svg"><path d="M50 15L15 32L50 49L85 32L50 15Z" fill="#0F172A" opacity="0.9"/><path d="M50 20L25 32L50 44L75 32L50 20Z" fill="#0F172A" opacity="0.6"/><path d="M50 25L35 32L50 39L65 32L50 25Z" fill="#0F172A" opacity="0.4"/><path d="M85 32V60C85 62.7614 82.7614 65 80 65C77.2386 65 75 62.7614 75 60V37" stroke="#0F172A" stroke-width="4" stroke-linecap="round"/><circle cx="75" cy="65" r="4" fill="#0F172A"/><path d="M30 40C30 40 30 65 50 65C70 65 70 40 70 40" stroke="#0F172A" stroke-width="6" stroke-linecap="round"/></svg>
